<?xml version="1.0" encoding="UTF-8" standalone="no"?>
<svg xmlns="http://www.w3.org/2000/svg" xmlns:xlink="http://www.w3.org/1999/xlink" contentStyleType="text/css" height="382px" preserveAspectRatio="none" style="width:144px;height:382px;background:#FFFFFF;" version="1.1" viewBox="0 0 144 382" width="144px" zoomAndPan="magnify"><defs/><g><!--MD5=[cc85b57b162aa659fa2aa8e50cbd7ced]
class intervenantes--><g id="elem_intervenantes"><rect codeLine="2" fill="#F1F1F1" height="145.7813" id="intervenantes" rx="2.5" ry="2.5" style="stroke:#181818;stroke-width:0.5;" width="130" x="7" y="7"/><ellipse cx="22" cy="23" fill="#A9DCDF" rx="11" ry="11" style="stroke:#181818;stroke-width:1.0;"/><path d="M24.0781,24.8125 L24.4688,25.7969 L24.0781,25.7969 C23.625,25.7969 23.5156,25.8125 23.3594,25.9219 C23.1094,26.0781 22.9531,26.3594 22.9531,26.6563 C22.9531,26.9219 23.0938,27.1719 23.3125,27.3281 C23.4531,27.4531 23.6563,27.5 24.0781,27.5 L26.4375,27.5 C26.7969,27.5 27.0156,27.4688 27.1563,27.375 C27.4063,27.2344 27.5625,26.9375 27.5625,26.6563 C27.5625,26.375 27.4219,26.125 27.2031,25.9688 C27.0313,25.8281 26.875,25.7969 26.4063,25.7969 L23.0156,17.5938 L19.3438,17.5938 C18.8906,17.5938 18.7656,17.6094 18.6094,17.7031 C18.3594,17.875 18.2031,18.1563 18.2031,18.4375 C18.2031,18.7188 18.3438,18.9688 18.5625,19.1406 C18.7344,19.25 18.9063,19.2813 19.3438,19.2813 L20.4219,19.2813 L17.7813,25.7969 C17.3594,25.7969 17.2031,25.8125 17.0469,25.9219 C16.7969,26.0781 16.6406,26.3594 16.6406,26.6563 C16.6406,27.2188 17.0156,27.5 17.7656,27.5 L20.0313,27.5 C20.3906,27.5 20.6094,27.4688 20.7344,27.375 C21,27.2344 21.1406,26.9375 21.1406,26.6563 C21.1406,26.375 21.0156,26.125 20.7969,25.9531 C20.625,25.8281 20.4844,25.7969 20.0313,25.7969 L19.6406,25.7969 L20.0313,24.8125 L24.0781,24.8125 Z M23.375,23.1094 L20.7031,23.1094 L22.0469,19.8438 L23.375,23.1094 Z " fill="#000000"/><text fill="#000000" font-family="sans-serif" font-size="14" font-style="italic" lengthAdjust="spacing" textLength="98" x="36" y="27.8467">intervenantes</text><line style="stroke:#181818;stroke-width:0.5;" x1="8" x2="136" y1="39" y2="39"/><text fill="#000000" font-family="sans-serif" font-size="14" lengthAdjust="spacing" textLength="51" x="13" y="55.9951">+name</text><text fill="#000000" font-family="sans-serif" font-size="14" lengthAdjust="spacing" textLength="78" x="13" y="72.292">+lastName</text><text fill="#000000" font-family="sans-serif" font-size="14" lengthAdjust="spacing" textLength="46" x="13" y="88.5889">+code</text><text fill="#000000" font-family="sans-serif" font-size="14" lengthAdjust="spacing" textLength="50" x="13" y="104.8857">+email</text><text fill="#000000" font-family="sans-serif" font-size="14" lengthAdjust="spacing" textLength="53" x="13" y="121.1826">+poste</text><line style="stroke:#181818;stroke-width:0.5;" x1="8" x2="136" y1="128.4844" y2="128.4844"/><text fill="#000000" font-family="sans-serif" font-size="14" lengthAdjust="spacing" textLength="53" x="13" y="145.4795">+scan()</text></g><!--MD5=[880f4d710980612e95a1f65da428437e]
class interventions--><g id="elem_interventions"><rect codeLine="12" fill="#F1F1F1" height="162.0781" id="interventions" rx="2.5" ry="2.5" style="stroke:#181818;stroke-width:0.5;" width="125" x="9.5" y="213"/><ellipse cx="24.5" cy="229" fill="#A9DCDF" rx="11" ry="11" style="stroke:#181818;stroke-width:1.0;"/><path d="M26.5781,230.8125 L26.9688,231.7969 L26.5781,231.7969 C26.125,231.7969 26.0156,231.8125 25.8594,231.9219 C25.6094,232.0781 25.4531,232.3594 25.4531,232.6563 C25.4531,232.9219 25.5938,233.1719 25.8125,233.3281 C25.9531,233.4531 26.1563,233.5 26.5781,233.5 L28.9375,233.5 C29.2969,233.5 29.5156,233.4688 29.6563,233.375 C29.9063,233.2344 30.0625,232.9375 30.0625,232.6563 C30.0625,232.375 29.9219,232.125 29.7031,231.9688 C29.5313,231.8281 29.375,231.7969 28.9063,231.7969 L25.5156,223.5938 L21.8438,223.5938 C21.3906,223.5938 21.2656,223.6094 21.1094,223.7031 C20.8594,223.875 20.7031,224.1563 20.7031,224.4375 C20.7031,224.7188 20.8438,224.9688 21.0625,225.1406 C21.2344,225.25 21.4063,225.2813 21.8438,225.2813 L22.9219,225.2813 L20.2813,231.7969 C19.8594,231.7969 19.7031,231.8125 19.5469,231.9219 C19.2969,232.0781 19.1406,232.3594 19.1406,232.6563 C19.1406,233.2188 19.5156,233.5 20.2656,233.5 L22.5313,233.5 C22.8906,233.5 23.1094,233.4688 23.2344,233.375 C23.5,233.2344 23.6406,232.9375 23.6406,232.6563 C23.6406,232.375 23.5156,232.125 23.2969,231.9531 C23.125,231.8281 22.9844,231.7969 22.5313,231.7969 L22.1406,231.7969 L22.5313,230.8125 L26.5781,230.8125 Z M25.875,229.1094 L23.2031,229.1094 L24.5469,225.8438 L25.875,229.1094 Z " fill="#000000"/><text fill="#000000" font-family="sans-serif" font-size="14" font-style="italic" lengthAdjust="spacing" textLength="93" x="38.5" y="233.8467">interventions</text><line style="stroke:#181818;stroke-width:0.5;" x1="10.5" x2="133.5" y1="245" y2="245"/><text fill="#000000" font-family="sans-serif" font-size="14" lengthAdjust="spacing" textLength="46" x="15.5" y="261.9951">+code</text><text fill="#000000" font-family="sans-serif" font-size="14" lengthAdjust="spacing" textLength="49" x="15.5" y="278.292">+room</text><text fill="#000000" font-family="sans-serif" font-size="14" lengthAdjust="spacing" textLength="44" x="15.5" y="294.5889">+date</text><text fill="#000000" font-family="sans-serif" font-size="14" lengthAdjust="spacing" textLength="63" x="15.5" y="310.8857">+timePE</text><text fill="#000000" font-family="sans-serif" font-size="14" lengthAdjust="spacing" textLength="54" x="15.5" y="327.1826">+timeE</text><text fill="#000000" font-family="sans-serif" font-size="14" lengthAdjust="spacing" textLength="54" x="15.5" y="343.4795">+timeS</text><line style="stroke:#181818;stroke-width:0.5;" x1="10.5" x2="133.5" y1="350.7813" y2="350.7813"/><text fill="#000000" font-family="sans-serif" font-size="14" lengthAdjust="spacing" textLength="55" x="15.5" y="367.7764">+send()</text></g><!--MD5=[db4a090e78e5417add0e5d884155adf0]
link intervenantes to interventions--><g id="link_intervenantes_interventions"><path codeLine="23" d="M72,153.069 C72,172.275 72,193.143 72,212.757 " fill="none" id="intervenantes-interventions" style="stroke:#181818;stroke-width:1.0;"/><text fill="#000000" font-family="sans-serif" font-size="13" lengthAdjust="spacing" textLength="8" x="63.6188" y="172.8319">1</text><text fill="#000000" font-family="sans-serif" font-size="13" lengthAdjust="spacing" textLength="7" x="64.6883" y="201.9227">*</text></g><!--MD5=[3d1900e85f2e6a72cea0d657f4e62c97]
@startuml
skinparam classAttributeIconSize 0
abstract intervenantes {
	+name
	+lastName
	+code
	+email
	+poste
	
	+scan()
}

abstract interventions {
	+code
	+room
	+date
	+timePE
	+timeE
	+timeS
	
	+send()
}

intervenantes "1" - - "*" interventions
@enduml

PlantUML version 1.2022.3beta2(Unknown compile time)
(GPL source distribution)
Java Runtime: Java(TM) SE Runtime Environment
JVM: Java HotSpot(TM) 64-Bit Server VM
Default Encoding: UTF-8
Language: en
Country: US
--></g></svg>